<svg width="57" height="86" viewBox="0 0 57 86" fill="none" xmlns="http://www.w3.org/2000/svg">
<path d="M23.3925 0.939772C24.8177 0.939772 26.2429 0.939772 27.6681 0.939772C27.8776 0.986044 28.0854 1.05876 28.2982 1.07693C31.4043 1.34134 34.4148 2.04533 37.2536 3.31944C47.494 7.91517 53.4373 15.9598 55.7747 26.8203C56.1245 28.4464 56.2317 30.1271 56.4494 31.7813V34.2551C56.4032 34.5509 56.329 34.8451 56.3158 35.1409C56.1459 38.6773 55.458 42.1113 54.305 45.4511C53.6023 47.4871 52.1754 48.7827 50.0541 49.1314C49.0594 49.295 48.0136 49.1594 46.8523 49.1594C46.7484 49.371 46.5439 49.7874 46.336 50.2006C46.1265 50.617 45.9204 51.0367 45.7043 51.4482C42.971 56.6356 39.5531 61.3222 35.4078 65.4618C33.7615 67.1045 32.6514 69.0148 32.3413 71.3317C32.1912 72.4455 32.2208 73.5808 32.1103 74.6996C31.4373 81.5411 24.4762 86.6012 17.7741 85.1337C11.5982 83.782 7.6871 78.3765 8.31063 71.8324C8.50858 69.7535 7.97248 68.1109 6.64789 66.5426C3.78428 63.1549 3.45436 58.1741 5.71589 54.365C7.41328 51.5061 7.32257 49.7659 5.33486 47.1169C-1.2188 38.3832 -1.45305 26.5162 4.72286 17.5132C4.97689 17.1413 5.11381 16.6158 5.12206 16.1581C5.21774 10.746 7.44627 6.51051 12.2052 3.89618C14.0445 2.88647 16.1707 2.34113 18.2211 1.79414C19.902 1.3463 21.6654 1.20914 23.3908 0.934814L23.3925 0.939772ZM9.93215 22.3717C10.1037 22.1287 10.2258 21.9552 10.3478 21.7833C14.6119 15.74 20.3969 12.9488 27.7654 13.8065C35.5348 14.7104 42.1709 21.1752 43.4609 28.9075C44.1933 33.2999 43.5268 37.5635 42.2105 41.7412C40.1502 48.2753 36.3761 53.7684 31.6023 58.5757C28.7469 61.4527 27.0083 64.7463 26.9126 68.8545C26.8895 69.8378 26.2693 70.4195 25.4445 70.3732C24.6214 70.3269 24.0523 69.6874 24.1331 68.7041C24.2387 67.4217 24.3608 66.1261 24.656 64.8785C25.334 62.0097 26.7674 59.5292 28.8393 57.4354C32.4122 53.8229 35.5546 49.8948 37.7716 45.2859C40.0084 40.6339 41.3346 35.7507 40.8381 30.5534C39.7791 19.4863 27.2656 12.3804 17.073 18.9641C14.8494 20.4002 13.1273 22.3105 11.9693 24.5381C15.3955 27.9754 18.7407 31.3334 22.1075 34.7112C22.5067 34.2849 22.9322 33.7841 23.4057 33.333C26.4276 30.451 31.2691 30.4708 34.2811 33.3661C37.3476 36.3142 37.7188 41.2751 34.7793 44.2828C32.4897 46.6228 29.8141 48.5811 27.3184 50.7211C27.132 50.8814 26.9373 51.1111 26.8878 51.3408C26.4458 53.352 25.1888 54.3947 23.117 54.4079C21.6093 54.4178 20.1016 54.3864 18.5939 54.4178C16.8702 54.4542 15.7171 55.6176 15.6924 57.3445C15.6676 59.1028 15.6759 60.8628 15.6907 62.6211C15.699 63.6424 16.2829 64.2885 17.1324 64.267C17.9605 64.2472 18.4785 63.6407 18.4884 62.6393C18.4999 61.3751 18.4768 60.1109 18.4982 58.8467C18.5147 57.8717 19.0822 57.2437 19.8987 57.2387C20.7202 57.2338 21.2827 57.8551 21.2942 58.8335C21.3091 60.2084 21.3239 61.5833 21.286 62.9566C21.2217 65.2999 19.4138 67.0731 17.1275 67.0813C14.8181 67.0912 12.9459 65.2867 12.8947 62.9285C12.8535 60.9785 12.8469 59.0252 12.8997 57.0735C12.9723 54.3484 14.9039 52.0745 17.5893 51.7325C19.2372 51.5226 20.9247 51.6416 22.5941 51.5887C23.178 51.5705 24.0077 51.8448 24.0737 50.8864C24.1397 49.9295 23.2654 50.0667 22.6996 49.9742C12.0963 48.2638 5.21774 37.9833 7.86526 27.5441C8.29579 25.8503 8.32878 24.5844 7.17904 23.2475C6.63964 22.6212 6.37902 21.7536 5.97323 20.9604C4.53813 23.1781 3.35869 27.1376 3.15579 29.9932C2.73351 35.9606 4.37152 41.2735 8.01538 45.9998C10.1383 48.7546 10.295 52.2067 8.52178 55.1896C6.29984 58.931 6.55552 62.0229 9.33336 65.4106C10.8361 67.2433 11.3854 69.3453 11.1429 71.7167C11.0274 72.8504 11.0406 74.0369 11.2369 75.1573C12.0683 79.9051 16.7596 83.2102 21.474 82.4566C26.134 81.7113 29.3424 77.9567 29.415 72.9875C29.4694 69.2395 30.794 66.1113 33.43 63.4738C36.3101 60.5934 38.8454 57.4238 41.036 53.9816C45.244 47.3697 47.8602 40.2423 47.9608 32.3117C48.0318 26.7046 46.3245 21.6875 42.6889 17.4322C37.6594 11.5475 31.2229 8.86208 23.4997 9.50988C17.4541 10.0172 12.4659 12.6861 8.49045 17.2669C8.309 17.4752 8.10114 17.8057 8.14237 18.037C8.41785 19.5855 8.96055 21.0331 9.93874 22.375L9.93215 22.3717ZM17.6982 7.80611C17.8978 7.75322 18.1024 7.70695 18.3053 7.64581C23.0197 6.2147 27.7489 6.20148 32.4765 7.55161C42.9198 10.5312 50.2983 19.9292 50.737 30.803C50.897 34.7592 50.351 38.6377 49.2986 42.4451C48.9456 43.7226 48.5134 44.9785 48.1192 46.2427C49.6929 46.755 51.1428 46.0708 51.6558 44.5406C53.4291 39.2524 54.0559 33.8519 53.1998 28.306C51.3292 16.1944 41.7371 4.78194 27.2623 3.8152C24.7038 3.64499 22.1652 3.81851 19.6694 4.39525C18.0595 4.76707 17.172 6.35186 17.6999 7.80776L17.6982 7.80611ZM33.9248 39.6325C33.943 37.0479 32.7058 35.1888 30.7577 34.3857C28.8195 33.5875 26.5893 33.9973 25.169 35.554C23.4502 37.4363 21.7825 39.3681 20.1577 41.333C19.168 42.5278 18.97 43.944 19.3725 45.4511C19.521 46.0047 19.7964 46.3633 20.3771 46.4955C21.2283 46.6905 22.0712 46.9202 22.9124 47.1483C23.6712 47.3549 24.5141 47.4375 25.1575 47.8374C25.8008 48.2373 26.2066 48.1944 26.7147 47.7498C28.5918 46.1072 30.4954 44.496 32.3479 42.8252C33.4151 41.8618 33.905 40.5959 33.9248 39.6309V39.6325ZM10.7371 27.6978C8.76922 33.5429 11.3739 40.9182 16.4083 44.2679C16.2318 41.0735 18.3102 39.0987 20.095 37.0777C16.9427 33.918 13.8498 30.8195 10.7371 27.6978ZM14.8099 5.69746C11.3491 7.18309 9.20304 9.66026 8.29579 13.124C10.4616 11.6681 12.6473 10.1973 14.8099 8.74475V5.69746Z" fill="white"/>
</svg>
