<svg width="85" height="86" viewBox="0 0 85 86" fill="none" xmlns="http://www.w3.org/2000/svg">
<path d="M69.8649 0.934814C70.7491 1.09676 71.6464 1.20583 72.5124 1.43554C73.3009 1.64376 74.1009 1.89825 74.8185 2.27834C76.9085 3.38554 77.6937 5.44131 76.6792 7.57144C76.0887 8.81085 75.287 10.0503 74.2906 10.9757C72.4465 12.6861 70.3928 14.1668 68.4183 15.735C68.1246 15.968 67.7914 16.1548 67.379 16.4274C67.7172 16.6324 67.9613 16.7877 68.2121 16.9315C70.9998 18.5394 73.7381 20.225 75.8792 22.684C76.4483 23.3384 76.9448 24.0903 77.3225 24.872C78.2397 26.7691 77.7184 28.6596 76.0095 29.8907C74.5678 30.9302 72.8918 31.3665 71.1713 31.6011C69.6274 31.8127 68.0685 31.9069 66.4437 32.0589V47.4722C69.2315 47.492 71.6118 48.4621 73.3372 50.7591C74.4655 52.2629 75.0066 53.9733 74.9274 55.8457C74.7393 60.3042 71.8196 62.9384 66.358 63.6622C65.9901 65.2486 65.7229 66.8483 65.2445 68.3835C61.9685 78.9251 52.0069 85.9137 41.0077 85.3552C34.9654 85.0478 29.738 82.7541 25.3716 78.5384C24.5518 77.7469 24.5897 76.7834 25.4492 76.3554C26.1337 76.015 26.6484 76.3323 27.135 76.8082C29.2877 78.9053 31.7768 80.4785 34.5827 81.5411C47.6801 86.4971 62.2539 77.6279 63.7088 63.7134C64.0387 60.5554 63.8605 57.3445 63.9034 54.1584C63.9199 52.9223 63.8919 51.6845 63.9133 50.4484C63.9216 50.0287 63.7995 49.8304 63.3739 49.6899C61.505 49.0719 60.286 47.7878 59.6262 45.932C58.6628 43.2169 57.6714 40.5133 56.6883 37.8048C56.3452 36.8595 56.1143 36.7389 55.1476 37.0413C50.5009 38.4939 45.7485 39.1896 40.8774 39.0409C36.9894 38.9219 33.1905 38.2807 29.4823 37.1074C28.0835 36.6645 27.9449 36.7141 27.4649 38.1303C26.594 40.7034 25.7576 43.2863 24.9114 45.8676C24.2763 47.806 22.9847 49.0752 21.068 49.7527C20.8321 49.8353 20.5121 50.1543 20.5121 50.3625C20.5121 54.5666 20.4758 58.774 20.616 62.9747C20.7166 66.0072 21.6832 68.8462 23.1167 71.5184C23.2338 71.7365 23.3608 71.9481 23.4697 72.1695C23.8408 72.9214 23.6874 73.6138 23.0787 73.9625C22.4305 74.3344 21.7443 74.103 21.2939 73.3263C19.7401 70.6343 18.7256 67.7539 18.2951 64.6703C18.2489 64.3447 18.1912 64.0225 18.1252 63.6209C15.349 63.6556 12.967 62.7467 11.1921 60.529C9.99784 59.0351 9.41555 57.3082 9.46174 55.4061C9.51782 53.1322 10.3904 51.1954 12.068 49.6403C13.7209 48.1068 15.7234 47.4986 17.9718 47.4854V32.8224C16.6505 32.7546 15.3308 32.7893 14.0458 32.596C12.6767 32.3894 11.2696 32.1333 10.0028 31.6044C7.38826 30.5154 6.53708 28.1341 7.92765 25.6553C8.69304 24.2903 9.84277 23.1384 10.8506 21.9156C11.1608 21.5388 11.5748 21.2496 11.9938 20.8728C11.4263 20.1407 11.0321 19.2434 11.6688 18.4964C12.1868 17.8899 13.0413 17.5727 13.7852 17.1017C13.5741 16.9612 13.1798 16.7414 12.8367 16.4588C11.4 15.2756 9.93845 14.1155 8.57098 12.8546C8.00023 12.3291 7.56146 11.6152 7.19856 10.9179C6.04883 8.71335 6.65914 6.60966 8.79036 5.31902C10.4218 4.3308 12.2511 3.95237 14.1118 3.7491C19.4217 3.17236 24.6854 3.69787 29.931 4.4911C31.8791 4.78525 33.8157 5.15873 35.8314 5.50907C36.3461 4.16554 37.6113 4.24652 38.7313 4.11597C39.3367 4.04491 39.6501 3.80198 39.8877 3.26986C40.2967 2.3527 40.6398 1.36117 41.7005 0.943077H42.6886C43.7459 1.36282 44.0544 2.36757 44.5196 3.25995C44.6631 3.53758 44.8742 3.96393 45.092 3.98707C46.1081 4.09944 47.1721 4.28948 48.1535 4.10109C52.2114 3.32109 56.2363 2.37253 60.2909 1.57105C61.9223 1.2488 63.5966 1.14634 65.2511 0.943077C66.7885 0.943077 68.3242 0.943077 69.8616 0.943077L69.8649 0.934814ZM20.5615 32.6323V47.2673C21.6997 46.8294 22.2705 46.013 22.6119 44.9702C23.5093 42.2336 24.3918 39.492 25.3386 36.772C26.0479 34.7377 27.6761 33.9362 29.7132 34.5889C37.961 37.2314 46.2087 37.2413 54.468 34.6468C56.6702 33.956 58.2141 34.7558 59.0026 36.9339C59.9924 39.6672 60.9771 42.4038 61.9702 45.1371C62.305 46.0609 62.8131 46.831 63.8573 47.1747C63.8787 47.0012 63.9034 46.8971 63.9034 46.793C63.9034 41.5164 63.9645 36.2382 63.877 30.9616C63.816 27.2401 62.3083 24.1085 59.5453 21.59C59.0967 21.1818 58.7536 21.1422 58.1878 21.3884C54.8507 22.8492 51.4939 24.2638 48.1321 25.6701C47.2001 26.0601 46.4875 25.7875 46.2219 25.0306C45.9761 24.3299 46.3621 23.735 47.2644 23.3615C50.0241 22.2196 52.7789 21.0678 55.5336 19.916C55.7679 19.8185 55.9889 19.6879 56.2165 19.5722C56.2099 19.5012 56.205 19.4301 56.1984 19.3591C55.1971 19.093 54.209 18.6716 53.1946 18.589C49.1499 18.2618 45.1019 17.918 41.0473 17.804C33.6029 17.5941 26.1882 18.1147 18.8081 19.1079C17.4687 19.288 16.1358 19.5144 14.5869 19.754C15.3704 20.3142 15.956 20.7604 16.568 21.167C18.8229 22.6642 21.2659 23.7548 23.8507 24.5448C24.7943 24.8323 25.2116 25.528 25.0863 26.4187C24.9724 27.2268 24.344 27.7441 23.4037 27.8185C22.9946 27.8515 22.5756 27.8565 22.1831 27.9589C21.1438 28.2283 20.5417 29.0727 20.6721 30.1436C22.9732 29.78 25.304 29.5635 27.5606 29.0265C32.1661 27.9275 36.7321 26.6567 41.3129 25.452C42.1805 25.224 42.8272 25.49 43.0449 26.2006C43.2692 26.9294 42.9129 27.5326 42.0453 27.8102C36.9003 29.4611 31.6943 30.8773 26.3614 31.7763C24.4446 32.0986 22.5163 32.3464 20.5583 32.6323H20.5615ZM47.3717 8.3878C47.3816 8.41094 47.3882 8.44895 47.403 8.4539C53.2177 10.2601 58.9367 12.3126 64.4362 14.9501C64.6144 15.036 64.9311 15.0162 65.0993 14.9121C68.0042 13.129 70.8612 11.2682 73.1063 8.64891C73.6836 7.97632 74.1059 7.15004 74.5001 6.34691C74.84 5.65779 74.5628 5.02652 73.9294 4.64478C73.4197 4.33741 72.8588 4.03499 72.2848 3.93254C70.9404 3.69457 69.5746 3.44999 68.2153 3.43677C62.244 3.37563 56.464 4.64313 50.6823 5.97674C49.1218 6.33699 48.1898 7.19136 47.3717 8.3878ZM35.7341 8.17628C35.7275 8.1267 35.7209 8.07547 35.7127 8.02589C34.078 7.72183 32.4482 7.39132 30.8102 7.11865C25.8813 6.29568 20.9294 5.73877 15.9214 6.05606C14.059 6.17339 12.2016 6.38491 10.4878 7.20127C8.97017 7.92344 8.70625 8.83399 9.64979 10.232C10.0902 10.8848 10.5884 11.559 11.2119 12.0184C13.2343 13.514 15.3308 14.9088 17.3862 16.358C17.8134 16.6588 18.1483 16.5877 18.5722 16.3349C23.026 13.6743 27.6942 11.45 32.4944 9.49666C33.5748 9.05708 34.6536 8.61585 35.7341 8.17628ZM37.6509 10.1246C33.1394 11.8168 28.8324 13.6379 24.697 15.8524C26.9618 15.7631 29.2019 15.5846 31.4436 15.4673C37.8637 15.1318 44.2738 15.2988 50.6823 15.783C53.5278 15.9978 56.2825 16.4836 58.7733 17.9841C58.9218 18.0734 59.1676 18.156 59.2979 18.0932C60.2118 17.6536 61.1058 17.1744 62.1648 16.6258C57.0908 14.3023 52.091 12.4547 46.9081 10.9294C46.9807 12.8778 45.6215 14.0825 44.2705 13.2446C42.7711 12.3159 41.5735 12.3737 40.0955 13.2612C38.8187 14.0279 37.3078 12.7803 37.4958 11.288C37.5387 10.9426 37.5898 10.5973 37.6542 10.123L37.6509 10.1246ZM66.2738 29.547C67.6446 29.4396 68.9956 29.4429 70.302 29.2016C71.6349 28.9554 72.9743 28.5885 74.2164 28.0548C75.409 27.5425 75.6169 26.6633 74.9224 25.5545C74.4177 24.7513 73.7875 23.9978 73.0947 23.3483C70.7738 21.1686 68.0224 19.6185 65.228 18.1444C65.0614 18.0569 64.7843 18.0056 64.6358 18.0833C63.5554 18.6452 62.4947 19.2467 61.3549 19.8747C64.1426 22.5369 65.7559 25.6999 66.2738 29.5454V29.547ZM17.9817 49.9742C15.5453 49.9543 13.7011 50.8599 12.5975 52.952C11.5105 55.0095 11.6952 57.0603 13.0957 58.9177C14.2982 60.5141 15.9577 61.1933 17.9833 61.0892V49.9742H17.9817ZM66.4239 61.1074C68.7267 61.1586 70.5148 60.3208 71.6646 58.3856C72.8341 56.4158 72.7764 54.3881 71.5145 52.4728C70.3334 50.6781 68.598 49.9262 66.4223 49.9907V61.109L66.4239 61.1074ZM20.3108 26.0684C18.6646 25.1661 17.081 24.3613 15.5618 23.4508C13.8809 22.4444 13.8578 22.3551 12.4705 23.816C11.5732 24.7596 10.7302 25.7941 10.0671 26.9096C9.42048 27.9986 9.76691 28.7307 10.91 29.3124C11.2004 29.4611 11.5105 29.5817 11.8239 29.6743C13.8198 30.2659 15.8669 30.3006 17.9932 30.246C18.1202 28.4861 18.7751 27.0318 20.3125 26.0668L20.3108 26.0684ZM45.4499 6.47746C43.7262 6.65428 42.7678 5.77017 42.1838 4.24156C41.6609 5.84123 40.6102 6.59148 38.9227 6.6014C40.2836 7.5764 40.6943 8.82738 40.211 10.4452C41.5801 9.43056 42.8519 9.47353 44.1006 10.4816C44.1006 9.67514 43.9406 8.94967 44.1451 8.34814C44.3596 7.71522 44.9237 7.20127 45.4483 6.47581L45.4499 6.47746Z" fill="white"/>
<path d="M84.3561 38.8724C83.7772 39.5202 83.1668 40.1449 82.634 40.829C82.4344 41.0868 82.3206 41.4867 82.3305 41.8156C82.3486 42.4138 82.54 43.0071 82.568 43.607C82.634 45.0711 81.1923 46.1568 79.9683 45.4016C78.4887 44.4878 77.2895 44.4597 75.8016 45.3934C74.5611 46.1717 73.0798 45.0364 73.1656 43.5508C73.187 43.169 73.22 42.7708 73.347 42.4155C73.677 41.4966 73.385 40.8307 72.6196 40.3052C72.5074 40.2291 72.4249 40.1118 72.3227 40.0209C71.6249 39.3979 71.1631 38.6873 71.5095 37.7024C71.8361 36.772 72.5734 36.3638 73.4906 36.3919C74.9405 36.4366 75.6218 35.6268 76.0655 34.3907C76.3575 33.5776 76.9695 33.0934 77.8784 33.0918C78.7889 33.0918 79.3415 33.6107 79.7044 34.3907C79.7506 34.4899 79.8182 34.584 79.8446 34.6882C80.1531 35.8532 80.9152 36.3804 82.1062 36.3605C83.1272 36.344 83.8596 36.8447 84.3578 37.7173V38.8724H84.3561ZM75.8478 42.6055C77.2235 41.5743 78.5398 41.6156 79.8595 42.6667C79.7902 41.2422 80.1745 39.9521 81.0125 38.7964C80.3543 38.5832 79.589 38.5088 79.0578 38.1155C78.5299 37.7255 78.238 37.0166 77.7513 36.3176C77.395 38.0428 76.2601 38.6873 74.6056 38.7534C75.955 39.735 76.3773 40.9612 75.8478 42.6055Z" fill="white"/>
<path d="M1.83091 43.3209C2.68042 41.8023 1.76163 40.6752 0.516221 39.4936C-0.542789 38.4872 0.130221 36.5984 1.60327 36.4943C3.31715 36.3736 4.2607 35.6713 4.90897 34.0849C5.48136 32.6851 7.5433 32.6769 8.12724 34.0733C8.78376 35.6449 9.70089 36.3736 11.428 36.4926C12.9736 36.5984 13.6087 38.5831 12.4326 39.6044C11.174 40.6967 10.7632 41.7692 11.1805 43.43C11.5698 44.9801 9.85597 46.1964 8.49839 45.3486C7.09297 44.4728 5.96301 44.4695 4.5609 45.3453C3.24786 46.165 1.77482 45.1239 1.83256 43.3226L1.83091 43.3209ZM4.50482 42.5889C5.87229 41.5544 7.19028 41.642 8.56601 42.5773C7.97217 40.9165 8.52643 39.7366 9.99947 38.6442C8.0728 38.7401 7.05172 37.9436 6.52056 36.3406C6.02075 37.9551 4.9535 38.7302 3.26766 38.7665C4.63348 39.7614 5.01618 40.976 4.50482 42.5889Z" fill="white"/>
<path d="M42.1195 71.2029C43.9571 71.231 45.6495 71.6276 47.2347 72.4539C48.0595 72.8835 48.3432 73.5098 48.0364 74.1808C47.7164 74.8814 46.9989 75.0897 46.1411 74.6666C43.5051 73.3661 40.879 73.3512 38.2348 74.6402C37.4067 75.0451 36.737 74.8583 36.3923 74.189C36.036 73.495 36.3197 72.8372 37.184 72.401C38.7528 71.6094 40.4188 71.2244 42.1195 71.2045V71.2029Z" fill="white"/>
<path d="M30.0481 49.4338C31.6316 49.4718 33.1096 49.8139 34.492 50.541C35.2689 50.9492 35.5444 51.6367 35.2161 52.2944C34.9027 52.9224 34.2066 53.1455 33.4478 52.767C31.183 51.64 28.9346 51.6433 26.6616 52.7439C25.8929 53.1157 25.2347 52.8926 24.9114 52.2366C24.5897 51.5855 24.8306 50.9426 25.5828 50.541C26.9849 49.7924 28.4925 49.4553 30.0497 49.4338H30.0481Z" fill="white"/>
<path d="M54.2717 49.4321C55.8866 49.4668 57.3663 49.8073 58.7469 50.536C59.5503 50.9591 59.8224 51.6168 59.4909 52.2745C59.1544 52.9421 58.4715 53.1454 57.6582 52.7455C55.4165 51.6416 53.1946 51.6515 50.9495 52.7372C50.1808 53.109 49.4996 52.8942 49.1862 52.258C48.8579 51.5904 49.1268 50.9079 49.9087 50.5046C51.2943 49.7891 52.7756 49.4553 54.2717 49.4321Z" fill="white"/>
<path d="M28.8473 56.9066C28.8473 56.2472 28.8308 55.5862 28.8539 54.9285C28.8786 54.2212 29.2794 53.8097 29.9689 53.7255C30.6238 53.6445 31.2474 54.1088 31.2771 54.8112C31.3364 56.2092 31.3331 57.6139 31.2836 59.012C31.2589 59.7176 30.6552 60.177 30.0036 60.1423C29.352 60.1076 28.8786 59.6118 28.8522 58.8831C28.8291 58.2237 28.8473 57.5643 28.8489 56.905L28.8473 56.9066Z" fill="white"/>
<path d="M55.5534 56.9364C55.5534 57.5957 55.5749 58.2567 55.5468 58.9145C55.5171 59.6366 55.0222 60.1274 54.3674 60.1456C53.7142 60.1638 53.1352 59.6961 53.1121 58.9855C53.0659 57.6139 53.0659 56.2373 53.1137 54.8657C53.1385 54.1535 53.7174 53.6957 54.3773 53.7189C55.0338 53.742 55.5171 54.2311 55.5468 54.9583C55.5732 55.616 55.5518 56.277 55.5518 56.9364H55.5534Z" fill="white"/>
</svg>
